<svg width="108" height="108" viewBox="0 0 108 108" fill="none" xmlns="http://www.w3.org/2000/svg">
<path d="M106.008 38.4456C104.774 37.0603 103.087 36.1593 101.25 35.9035V35.8996L72.5467 31.9347L61.1883 4.7938C59.5298 0.821138 54.9648 -1.0548 50.9923 0.603736C49.0985 1.39447 47.5928 2.90001 46.8023 4.7938L35.4438 31.9347L6.74094 35.8996C2.46454 36.4949 -0.519643 40.4445 0.0756128 44.7209C0.331433 46.5586 1.23245 48.2454 2.61777 49.4798L24.2433 68.7641L19.7999 99.025C19.3186 102.098 20.7299 105.159 23.3792 106.789C25.9911 108.459 29.3509 108.397 31.899 106.631L53.9951 91.6042L76.0911 106.646C79.6566 109.066 84.5088 108.137 86.9289 104.572C88.0286 102.952 88.479 100.977 88.1904 99.0403L83.7472 68.7677L105.373 49.4834C108.596 46.6111 108.881 41.6691 106.008 38.4456ZM77.0593 64.4095C76.0918 65.2739 75.6238 66.5666 75.8134 67.85L80.4417 100.248L56.1743 83.7481C54.866 82.8591 53.1474 82.8591 51.8391 83.7481L27.4289 100.147L32.1767 67.8346C32.3611 66.5564 31.8933 65.2708 30.9308 64.4098L7.78953 43.5516L38.6755 39.2897C40.0278 39.1033 41.1806 38.2158 41.7069 36.9564L54.0412 7.71358C54.0552 7.73076 54.0656 7.75042 54.0721 7.77144L66.2791 36.941C66.8055 38.2004 67.9585 39.0879 69.3106 39.2743L100.235 43.7252L77.0593 64.4095Z" fill="#FF523B"/>
<path d="M54 86V8L39 37L6 43L30 68L25 103H30L54 86Z" fill="#FF523B" stroke="#FF523B"/>
</svg>
