<svg width="110" height="94" viewBox="0 0 110 94" fill="none" xmlns="http://www.w3.org/2000/svg">
<path d="M38.0766 42.3081H23.2687C21.5058 42.3081 20.0071 41.6912 18.7729 40.4571C17.5395 39.223 16.922 37.7247 16.922 35.9613V33.8469C16.922 29.1751 18.575 25.1871 21.8807 21.8814C25.1861 18.5769 29.1748 16.9239 33.8461 16.9239H38.0766C39.2222 16.9239 40.2135 16.5051 41.0512 15.668C41.8884 14.8306 42.307 13.8393 42.307 12.6935V4.23115C42.307 3.0855 41.8882 2.09335 41.0512 1.25587C40.2137 0.41955 39.2225 0 38.0766 0H33.8461C29.2624 0 24.8893 0.89328 20.7241 2.67729C16.5594 4.46246 12.9572 6.87557 9.91589 9.91684C6.87486 12.9567 4.46245 16.5592 2.67752 20.7244C0.892583 24.8891 0 29.2634 0 33.8467V80.384C0 83.9115 1.23341 86.9067 3.70138 89.3756C6.16959 91.8431 9.16709 93.0768 12.6925 93.0768H38.0782C41.6034 93.0768 44.6 91.8431 47.0684 89.3756C49.5359 86.9067 50.77 83.9115 50.77 80.384V55.0006C50.77 51.4738 49.5359 48.4786 47.0668 46.0094C44.5995 43.5422 41.6018 42.3081 38.0766 42.3081Z" fill="#FF523B"/>
<path d="M106.3 46.0094C103.833 43.5422 100.836 42.3081 97.31 42.3081H82.5024C80.7404 42.3081 79.2403 41.6912 78.0082 40.4571C76.7737 39.223 76.1573 37.7247 76.1573 35.9613V33.8469C76.1573 29.1751 77.8103 25.1871 81.1143 21.8814C84.4186 18.5769 88.4071 16.9239 93.0807 16.9239H97.3103C98.4561 16.9239 99.4481 16.5051 100.285 15.668C101.122 14.8306 101.542 13.8393 101.542 12.6935V4.23115C101.542 3.0855 101.122 2.09335 100.285 1.25587C99.4483 0.41955 98.4564 0 97.3103 0H93.0807C88.4944 0 84.1223 0.89328 79.956 2.67729C75.792 4.46246 72.1908 6.87557 69.1496 9.91684C66.1083 12.9567 63.6947 16.5592 61.9105 20.7244C60.126 24.8891 59.2323 29.2634 59.2323 33.8467V80.384C59.2323 83.9115 60.4669 86.9067 62.9341 89.3756C65.4017 91.8431 68.3985 93.0768 71.9243 93.0768H97.3086C100.835 93.0768 103.831 91.8431 106.299 89.3756C108.768 86.9067 110 83.9115 110 80.384V55.0006C110 51.4736 108.768 48.4786 106.3 46.0094Z" fill="#FF523B"/>
</svg>
