<svg width="113" height="113" viewBox="0 0 113 113" fill="none" xmlns="http://www.w3.org/2000/svg">
<path d="M112.631 43.2713C111.724 40.2119 109.1 37.9739 105.936 37.5613L75.9045 33.4128L64.0203 5.01577C62.2853 0.859243 57.509 -1.10352 53.3525 0.631544C51.371 1.45888 49.7956 3.0341 48.9685 5.01554L37.0843 33.4125L7.05298 37.561C2.57843 38.1841 -0.543874 42.3163 0.0791678 46.7906C0.346828 48.7134 1.28955 50.4782 2.73898 51.7697L25.3655 71.9466L20.7166 103.608C20.213 106.823 21.6896 110.027 24.4615 111.732C27.1944 113.479 30.7097 113.414 33.3756 111.566L56.4944 95.8442L79.6132 111.582C83.3436 114.114 88.4204 113.143 90.9525 109.412C92.1031 107.717 92.5743 105.651 92.2724 103.625L87.6236 71.9508L110.25 51.774C112.653 49.6582 113.585 46.3269 112.631 43.2713Z" fill="#FF523B"/>
</svg>
